<svg width="32" height="32" viewBox="0 0 32 32" fill="none" xmlns="http://www.w3.org/2000/svg">
<path fill-rule="evenodd" clip-rule="evenodd" d="M28.8891 18.158C28.8891 12.8495 25.5371 11.7569 23.1093 11.7569C21.5033 11.6589 19.9328 12.2495 18.8029 13.3762C17.6731 14.5029 17.0944 16.0554 17.2162 17.6334C17.2162 22.418 19.8744 23.9906 23.341 23.9906C25.8014 24.1355 28.0405 22.5983 28.7503 20.2769H25.4212C25.0797 21.0975 24.2401 21.6088 23.3409 21.5438C22.5663 21.6157 21.7987 21.3489 21.2421 20.8142C20.6855 20.2795 20.3962 19.531 20.451 18.7677H28.8891V18.158ZM10.8626 8C14.7726 8 15.7721 10.4027 15.7721 12.0193C15.9133 13.3969 15.1185 14.7024 13.8171 15.2306C15.4299 15.7892 16.4475 17.3575 16.2835 19.0314C16.281 20.2468 15.7851 21.4109 14.906 22.2651C13.9945 23.1386 13.1283 23.6849 9.86312 23.6849H3.11133V8H10.8626ZM11.1669 16.8703H6.33355V20.6732H11.1669C12.2346 20.6732 13.1002 19.8219 13.1002 18.7717C13.1002 17.7216 12.2346 16.8703 11.1669 16.8703ZM23.0635 14.2692C24.4768 14.3233 25.5864 15.4795 25.56 16.8703H20.544C20.7286 15.341 21.5383 14.2692 23.0635 14.2692ZM10.8447 10.5322H6.33355V14.335H10.8447C11.9124 14.335 12.778 13.4837 12.778 12.4336C12.778 11.3835 11.9124 10.5322 10.8447 10.5322ZM26.3113 8.73927V10.5322H19.8669V8.73927H26.3113Z" fill="white"/>
</svg>
