<svg width="32" height="32" viewBox="0 0 32 32" fill="none" xmlns="http://www.w3.org/2000/svg">
<path fill-rule="evenodd" clip-rule="evenodd" d="M11.3087 13.6471V24H7.55566V13.6471H11.3087ZM20.2223 12.9412C22.5542 12.9412 24.4446 14.8374 24.4446 17.1765V24H20.6915V17.4118C20.6915 16.3722 19.8513 15.5294 18.8149 15.5294C17.7785 15.5294 16.9384 16.3722 16.9384 17.4118V24H13.1853V13.6471H16.9384V14.5444C17.7316 13.5351 18.9411 12.9447 20.2223 12.9412ZM9.43221 8C10.4686 8 11.3087 8.84276 11.3087 9.88235C11.3087 10.9219 10.4686 11.7647 9.43221 11.7647C8.39582 11.7647 7.55566 10.9219 7.55566 9.88235C7.55566 8.84276 8.39582 8 9.43221 8Z" fill="white"/>
</svg>
