<svg width="32" height="32" viewBox="0 0 32 32" fill="none" xmlns="http://www.w3.org/2000/svg">
<path fill-rule="evenodd" clip-rule="evenodd" d="M18.3596 8.18867C16.6738 8.824 15.6085 10.4627 15.7295 12.256L15.7701 12.948L15.0955 12.8634C12.6412 12.5387 10.4965 11.4373 8.67555 9.58667L7.78536 8.66867L7.55621 9.34667C7.07088 10.858 7.38113 12.454 8.39234 13.5274C8.93173 14.1207 8.81008 14.2054 7.87998 13.852C7.55621 13.7394 7.273 13.6547 7.24596 13.6967C7.15199 13.796 7.47511 15.0807 7.73129 15.5894C8.08209 16.296 8.79656 16.9874 9.57926 17.3974L10.2403 17.722L9.45825 17.736C8.70323 17.736 8.67619 17.75 8.7573 18.0474C9.02699 18.9654 10.0923 19.94 11.2792 20.3641L12.1153 20.6601L11.3873 21.1121C10.3085 21.7627 9.04051 22.1294 7.77248 22.1567C7.16486 22.1707 6.66602 22.2274 6.66602 22.2701C6.66602 22.4107 8.31188 23.2014 9.26902 23.5127C12.1417 24.4307 15.5544 24.0347 18.1169 22.4674C19.9378 21.3514 21.7581 19.134 22.6084 16.9867C23.0674 15.8434 23.5257 13.7527 23.5257 12.7507C23.5257 12.1007 23.5662 12.016 24.3212 11.2393C24.7666 10.7873 25.1844 10.2933 25.2655 10.152C25.4007 9.88334 25.3865 9.88334 24.6991 10.1233C23.5527 10.5473 23.3905 10.4907 23.9576 9.85534C24.3753 9.40334 24.8748 8.584 24.8748 8.344C24.8748 8.302 24.6727 8.372 24.4429 8.49934C24.2002 8.64067 23.6608 8.85267 23.2559 8.97934L22.528 9.22001L21.8669 8.75334C21.5026 8.49934 20.9909 8.21667 20.7205 8.132C20.0325 7.93467 18.9801 7.96267 18.3596 8.18867Z" fill="white"/>
</svg>
